<?xml version="1.0" standalone="no"?>
<!DOCTYPE svg PUBLIC "-//W3C//DTD SVG 20010904//EN"
 "http://www.w3.org/TR/2001/REC-SVG-20010904/DTD/svg10.dtd">
<svg version="1.0" xmlns="http://www.w3.org/2000/svg"
 width="830.000000pt" height="830.000000pt" viewBox="0 0 830.000000 830.000000"
 preserveAspectRatio="xMidYMid meet">
<metadata>
Created by potrace 1.14, written by Peter Selinger 2001-2017
</metadata>
<g transform="translate(0.000000,830.000000) scale(0.100000,-0.100000)"
fill="#000000" stroke="none">
<path d="M4061 8269 c-7 -16 -14 -35 -15 -42 -1 -6 -7 -21 -13 -32 -6 -11 -9
-28 -8 -37 2 -10 0 -17 -3 -17 -20 3 -23 -3 -11 -18 12 -15 12 -16 -3 -10 -12
4 -15 2 -11 -9 3 -7 0 -14 -6 -14 -7 0 -8 -8 -1 -25 7 -19 6 -23 -5 -18 -11 4
-15 -2 -15 -22 0 -14 -4 -24 -8 -21 -4 3 -8 -7 -8 -22 1 -18 -4 -26 -13 -24
-12 3 -12 0 -2 -11 8 -11 8 -16 1 -19 -6 -2 -12 -13 -13 -26 0 -12 -5 -22 -10
-22 -4 0 -5 -4 -2 -10 3 -5 1 -10 -5 -10 -6 0 -8 -5 -5 -10 4 -6 1 -17 -5 -25
-7 -8 -9 -22 -6 -31 4 -11 2 -15 -7 -11 -9 3 -14 -2 -14 -16 -1 -42 -3 -48
-15 -41 -7 5 -9 2 -5 -8 3 -9 -1 -27 -8 -42 -8 -14 -11 -26 -8 -26 3 0 0 -7
-7 -15 -7 -8 -9 -15 -4 -15 4 0 3 -5 -4 -12 -7 -7 -12 -20 -12 -30 0 -10 -6
-18 -12 -18 -9 0 -8 -4 2 -10 11 -7 11 -10 2 -10 -7 0 -10 -5 -7 -10 3 -6 -1
-13 -9 -16 -9 -3 -16 -10 -16 -16 0 -5 4 -7 9 -4 5 4 4 -5 -2 -18 -7 -13 -14
-23 -18 -21 -3 2 -6 -2 -6 -10 0 -8 5 -12 10 -8 5 3 1 -6 -8 -20 -9 -14 -17
-30 -18 -34 -1 -4 -5 -7 -9 -6 -4 2 -5 -4 -2 -12 4 -9 1 -22 -6 -30 -7 -8 -9
-15 -5 -15 4 0 2 -6 -4 -13 -6 -8 -8 -17 -4 -20 3 -4 0 -13 -7 -22 -7 -8 -10
-21 -6 -30 3 -8 0 -14 -7 -12 -7 1 -13 -12 -15 -31 -2 -20 -7 -30 -14 -26 -7
5 -9 -2 -6 -19 3 -16 0 -28 -8 -31 -8 -3 -14 -17 -14 -31 0 -14 -4 -25 -10
-25 -5 0 -10 -10 -10 -23 0 -13 -6 -29 -12 -36 -11 -11 -10 -12 2 -6 13 8 13
7 0 -9 -8 -10 -15 -25 -16 -34 -2 -8 -9 -19 -16 -23 -10 -7 -10 -9 2 -9 12 0
12 -2 2 -9 -8 -4 -13 -11 -13 -15 1 -3 1 -7 0 -8 -5 -17 -11 -46 -12 -59 -1
-9 -7 -14 -14 -12 -9 4 -11 0 -7 -11 4 -9 1 -16 -6 -16 -9 0 -9 -4 1 -17 12
-14 12 -16 0 -8 -11 6 -13 4 -8 -8 3 -9 1 -17 -4 -19 -6 -2 -11 -10 -13 -18
-1 -8 -8 -26 -16 -40 -13 -24 -12 -24 6 -10 18 14 19 14 1 -7 -10 -11 -19 -30
-20 -41 0 -11 -5 -18 -9 -16 -4 3 -8 -6 -8 -20 0 -14 -5 -26 -11 -26 -5 0 -7
-4 -4 -10 3 -5 1 -10 -5 -10 -6 0 -8 -5 -5 -10 4 -6 1 -18 -7 -27 -11 -14 -11
-16 2 -9 8 4 5 -1 -7 -10 -13 -9 -23 -22 -23 -28 0 -6 5 -4 10 4 6 9 10 10 10
3 0 -6 -5 -15 -10 -18 -6 -4 -8 -11 -5 -16 4 -5 2 -9 -4 -9 -5 0 -8 -9 -6 -20
2 -11 0 -18 -6 -15 -5 4 -9 -3 -9 -14 0 -12 -6 -21 -12 -21 -9 0 -8 -4 2 -10
11 -7 11 -10 2 -10 -7 0 -10 -4 -7 -10 3 -5 1 -10 -4 -10 -6 0 -11 -5 -11 -11
0 -5 5 -7 12 -3 7 5 8 3 4 -5 -5 -7 -15 -10 -25 -6 -12 4 -13 3 -5 -5 16 -16
5 -60 -15 -60 -14 0 -14 -2 -1 -10 9 -6 10 -10 3 -10 -6 0 -10 -9 -8 -20 2
-11 0 -18 -6 -15 -5 4 -9 -5 -9 -19 0 -14 -4 -28 -10 -31 -5 -3 -10 -17 -10
-31 0 -17 -4 -23 -12 -18 -8 5 -9 0 -6 -14 4 -12 2 -22 -4 -22 -5 0 -6 -4 -3
-10 3 -5 0 -10 -7 -10 -9 0 -9 -3 2 -10 8 -5 10 -10 5 -10 -6 0 -16 -9 -23
-21 -11 -17 -11 -20 0 -14 10 6 11 5 1 -6 -7 -7 -13 -24 -13 -37 0 -13 -4 -21
-8 -18 -4 2 -9 -5 -9 -16 -1 -12 -8 -25 -15 -29 -11 -7 -11 -9 0 -9 10 0 9 -4
-3 -16 -12 -13 -13 -19 -4 -30 9 -12 9 -13 -4 -9 -12 5 -15 -1 -13 -29 1 -27
-2 -32 -11 -24 -10 8 -13 3 -13 -20 0 -17 -4 -34 -10 -37 -5 -3 -10 -17 -10
-31 0 -13 -4 -24 -9 -24 -5 0 -8 -13 -7 -29 1 -17 -2 -27 -6 -25 -4 3 -10 -2
-13 -10 -3 -9 -8 -24 -12 -33 -12 -31 -13 -76 -3 -88 5 -6 7 -15 3 -18 -3 -4
-1 -7 5 -7 6 0 9 -6 6 -14 -3 -8 -1 -17 5 -21 6 -3 11 -15 11 -26 0 -10 3 -19
8 -19 4 0 12 -11 19 -25 6 -14 7 -23 2 -19 -5 3 -9 0 -9 -5 0 -6 7 -11 15 -11
9 0 12 -6 8 -17 -4 -10 -2 -14 4 -10 6 4 11 1 10 -6 -1 -34 4 -48 15 -41 7 5
8 3 4 -5 -5 -7 0 -21 11 -33 10 -12 13 -19 7 -15 -6 3 -11 0 -11 -8 0 -8 4
-12 8 -9 7 4 22 -28 24 -48 0 -4 6 -13 13 -19 6 -7 12 -23 12 -35 0 -12 5 -24
12 -26 7 -3 13 -18 13 -34 1 -20 5 -28 15 -26 12 3 12 1 3 -9 -10 -10 -9 -15
5 -26 11 -10 12 -12 2 -7 -12 6 -13 4 -2 -7 6 -7 12 -21 12 -32 0 -11 5 -15
11 -11 7 4 9 -1 7 -12 -2 -11 2 -24 9 -29 8 -6 14 -24 16 -42 1 -23 5 -29 14
-22 8 7 10 4 6 -10 -3 -13 -1 -21 7 -21 9 0 9 -4 -1 -17 -10 -11 -10 -14 -1
-9 11 6 17 -5 13 -26 0 -5 4 -8 9 -8 6 0 10 -12 10 -26 0 -14 4 -23 10 -19 6
3 10 -4 10 -18 0 -14 7 -30 15 -37 13 -10 13 -15 3 -21 -9 -6 -8 -10 5 -15 11
-4 17 -17 17 -38 0 -24 3 -27 10 -16 7 11 10 7 10 -17 0 -18 5 -33 11 -33 5 0
7 -4 4 -10 -3 -5 -1 -10 5 -10 6 0 8 -4 5 -10 -3 -5 -1 -10 4 -10 6 0 11 -5
11 -11 0 -5 -6 -7 -12 -3 -13 8 4 -17 30 -45 10 -11 11 -16 2 -21 -9 -6 -7
-10 5 -18 11 -6 16 -16 12 -26 -4 -10 1 -19 12 -25 10 -6 17 -20 16 -33 -1
-13 2 -26 7 -29 5 -3 10 -16 11 -27 1 -12 7 -22 15 -22 7 0 10 -5 7 -10 -7
-12 16 -70 27 -70 5 0 8 -13 8 -30 0 -16 5 -30 10 -30 6 0 10 -9 10 -19 0 -11
5 -21 10 -23 6 -2 11 -17 13 -35 1 -17 5 -29 8 -27 4 2 13 -4 20 -13 10 -12
10 -14 2 -9 -7 4 -13 2 -13 -3 0 -6 5 -11 12 -11 6 0 8 -3 5 -6 -3 -4 -1 -16
5 -28 12 -21 14 -27 17 -46 0 -5 6 -9 13 -7 7 1 12 -10 11 -30 0 -18 4 -33 10
-33 5 0 7 -9 4 -20 -3 -11 -1 -18 3 -15 5 3 11 1 15 -5 3 -5 0 -10 -7 -10 -8
0 -6 -5 5 -11 9 -6 15 -14 12 -20 -4 -5 -2 -9 3 -9 5 0 9 -7 10 -15 1 -8 3
-22 4 -30 1 -8 5 -12 10 -9 7 5 12 -18 9 -38 0 -5 4 -8 10 -8 5 0 8 -4 4 -9
-3 -5 2 -17 11 -25 9 -9 13 -23 10 -31 -3 -9 0 -15 9 -15 8 0 15 -5 15 -11 0
-5 -6 -7 -12 -3 -9 6 -9 3 1 -9 7 -9 11 -23 8 -31 -4 -10 -1 -13 7 -10 7 3 16
-2 20 -11 4 -11 2 -14 -7 -9 -8 6 -8 3 1 -9 8 -9 10 -22 6 -28 -4 -8 -3 -9 4
-5 8 5 12 -2 12 -18 0 -14 5 -26 10 -26 6 0 10 -7 10 -15 0 -8 6 -15 13 -15 9
0 8 -3 -2 -9 -9 -6 -10 -10 -2 -12 7 -3 13 -14 14 -26 0 -12 5 -19 9 -17 4 3
8 -4 8 -16 0 -13 4 -19 12 -14 7 4 8 3 4 -5 -4 -6 0 -23 9 -38 9 -14 12 -22 5
-18 -7 4 -5 -4 4 -17 9 -14 13 -28 9 -31 -3 -4 -1 -7 5 -7 7 0 12 -9 12 -20 0
-11 5 -20 10 -20 6 0 10 -6 9 -12 -3 -27 1 -39 12 -32 8 5 10 -1 7 -19 -3 -16
0 -28 8 -31 8 -3 14 -17 14 -31 0 -14 5 -25 10 -25 6 0 10 -12 10 -26 0 -14 4
-23 10 -19 6 4 10 -5 10 -20 0 -22 16 -61 30 -75 3 -3 12 -25 20 -50 7 -25 17
-49 22 -55 4 -5 8 -20 8 -35 0 -20 2 -22 10 -10 7 11 10 7 10 -18 0 -20 4 -31
10 -27 6 4 10 -5 10 -19 0 -14 4 -26 8 -26 4 0 9 -10 9 -22 1 -13 7 -24 13
-26 5 -2 10 -8 10 -13 0 -6 -6 -7 -12 -4 -7 4 -5 0 6 -9 10 -8 15 -19 12 -24
-3 -6 -1 -12 4 -14 6 -2 12 -13 13 -25 0 -12 4 -20 8 -17 4 2 9 -3 13 -11 3
-8 0 -15 -6 -15 -7 0 -4 -6 7 -14 12 -8 16 -20 13 -34 -5 -16 -2 -19 11 -14
14 5 14 4 1 -13 -9 -11 -10 -16 -2 -11 8 5 12 1 12 -13 0 -10 5 -21 11 -23 5
-2 11 -11 13 -20 1 -10 5 -21 9 -24 4 -4 7 -17 7 -28 0 -12 9 -32 20 -46 11
-14 20 -33 20 -42 0 -9 5 -20 10 -23 6 -4 10 -12 9 -18 -3 -23 1 -38 9 -33 7
4 11 -9 14 -51 1 -7 5 -10 10 -7 4 3 8 -4 8 -15 0 -12 5 -21 10 -21 6 0 10 -5
10 -11 0 -5 -6 -7 -12 -4 -7 4 -5 0 4 -8 10 -8 15 -17 11 -20 -3 -4 -1 -13 5
-20 7 -8 8 -18 4 -22 -4 -5 2 -5 13 -1 15 6 17 4 8 -5 -9 -9 -8 -15 3 -27 8
-8 13 -21 10 -28 -3 -8 -1 -14 4 -14 6 0 10 -7 10 -15 0 -8 6 -15 13 -15 8 0
7 -4 -3 -10 -10 -6 -11 -10 -2 -10 6 0 12 -7 12 -15 0 -8 4 -15 9 -15 5 0 8
-11 6 -25 -1 -16 3 -25 11 -25 14 0 16 -4 17 -37 1 -10 8 -23 17 -30 8 -7 10
-13 4 -13 -6 0 -11 -6 -11 -14 0 -8 6 -12 15 -8 11 4 14 1 9 -11 -3 -8 1 -21
9 -27 8 -7 14 -23 14 -37 0 -17 4 -22 13 -17 7 5 6 0 -3 -11 -8 -10 -10 -16
-4 -12 11 6 37 -31 33 -49 -3 -19 1 -35 9 -30 4 2 9 -5 9 -17 1 -12 7 -23 13
-25 5 -2 8 -8 4 -13 -3 -5 1 -9 8 -9 9 0 9 -3 -2 -10 -11 -7 -11 -10 -2 -10 7
0 10 -4 7 -10 -3 -5 -1 -10 5 -10 6 0 8 -5 5 -10 -3 -6 1 -13 10 -16 13 -5 13
-9 3 -22 -10 -12 -10 -14 0 -8 8 5 12 0 12 -17 0 -14 7 -30 15 -37 8 -7 12
-16 9 -21 -3 -5 0 -9 5 -9 6 0 10 -3 10 -7 -4 -22 2 -33 14 -27 7 5 6 0 -3
-11 -9 -11 -10 -16 -2 -11 8 5 12 -1 12 -19 0 -17 4 -24 11 -19 7 4 10 1 7 -7
-3 -8 4 -24 15 -36 11 -13 15 -23 9 -23 -7 0 -12 5 -12 12 0 6 -3 8 -7 5 -3
-4 2 -16 11 -26 10 -11 15 -25 10 -32 -4 -8 -3 -10 4 -5 7 4 12 1 12 -8 0 -9
6 -16 13 -16 8 0 7 -4 -3 -10 -10 -6 -11 -10 -2 -10 6 0 12 -10 12 -22 0 -12
10 -33 23 -46 12 -14 17 -22 10 -19 -8 5 -8 1 0 -17 7 -13 16 -22 22 -19 5 3
4 0 -2 -7 -10 -11 -8 -19 10 -39 12 -13 15 -20 7 -16 -11 6 -10 3 3 -12 9 -11
14 -23 10 -26 -3 -4 -1 -7 5 -7 7 0 12 -5 12 -11 0 -5 -6 -7 -12 -3 -7 4 -3
-4 10 -18 12 -13 22 -34 22 -46 0 -12 5 -22 10 -22 6 0 10 -14 10 -31 0 -17 4
-28 10 -24 9 6 14 -10 13 -43 -1 -6 3 -12 8 -12 5 0 9 -9 9 -20 0 -11 5 -20
10 -20 6 0 10 -11 10 -24 0 -14 10 -32 22 -40 12 -9 17 -16 10 -16 -6 0 -12
-8 -12 -17 0 -15 2 -16 10 -3 8 12 10 9 10 -12 0 -16 4 -28 9 -28 5 0 8 -12 6
-26 -2 -18 1 -24 12 -20 8 3 11 2 8 -3 -3 -5 -1 -12 4 -16 6 -3 8 -12 4 -20
-4 -13 134 -15 1116 -15 617 0 1121 4 1121 8 0 5 -9 18 -20 29 -14 15 -16 23
-7 26 9 4 9 6 0 6 -7 1 -13 10 -13 21 0 11 -7 23 -16 27 -12 4 -13 7 -3 14 11
6 10 9 -4 15 -9 3 -17 10 -17 16 0 5 4 7 9 3 5 -3 3 8 -5 25 -9 16 -20 32 -25
35 -5 4 -7 11 -4 16 4 5 -4 23 -16 41 -13 17 -16 28 -8 23 11 -6 10 -4 -2 11
-24 29 -34 48 -21 40 7 -4 12 -2 12 3 0 6 -7 11 -16 11 -8 0 -12 4 -9 10 3 5
0 10 -7 10 -9 0 -9 3 2 10 8 5 10 10 5 10 -6 0 -16 9 -23 21 -11 17 -11 20 0
14 10 -6 11 -5 1 6 -7 7 -13 21 -13 32 0 10 -4 16 -9 13 -5 -3 -11 1 -15 9 -3
8 0 15 7 15 8 0 6 4 -3 10 -8 5 -10 10 -5 10 6 0 4 4 -3 9 -7 4 -14 17 -15 29
0 11 -5 18 -9 16 -4 -3 -8 4 -8 15 0 12 -6 21 -12 21 -9 0 -8 4 2 10 8 5 10
10 5 10 -6 0 -16 9 -23 21 -8 12 -9 18 -3 14 8 -4 7 2 -1 19 -6 14 -14 26 -17
26 -4 0 -8 12 -9 28 -1 15 -7 28 -12 30 -6 2 -10 12 -10 23 0 10 -4 19 -10 19
-5 0 -10 11 -10 25 0 14 -7 28 -16 32 -13 5 -13 7 -2 14 11 7 11 9 -1 9 -7 0
-11 6 -7 15 3 8 1 15 -4 15 -6 0 -10 7 -10 16 0 9 -5 12 -12 8 -8 -5 -7 0 2
11 9 11 10 16 3 11 -12 -7 -14 -3 -17 37 -1 6 -10 20 -21 30 -11 10 -14 16 -7
12 6 -3 12 -1 12 4 0 6 -4 11 -10 11 -5 0 -10 9 -10 20 0 11 -5 20 -11 20 -5
0 -8 4 -5 9 3 4 -1 17 -9 27 -8 10 -15 27 -15 37 0 9 -4 17 -10 17 -5 0 -10
11 -10 24 0 13 -7 36 -14 52 -8 15 -12 32 -9 37 3 6 1 7 -5 3 -7 -4 -12 -1
-12 8 0 9 -6 16 -12 16 -9 0 -8 4 2 10 10 6 11 10 3 10 -7 0 -13 9 -13 20 0
11 -5 20 -11 20 -6 0 -9 8 -7 18 2 9 -2 22 -10 27 -7 6 -14 20 -15 33 0 12 -5
22 -9 22 -4 0 -8 9 -8 19 0 11 -4 23 -10 26 -5 3 -10 17 -10 31 0 14 -4 22
-10 19 -5 -3 -10 3 -10 14 0 11 -4 23 -10 26 -5 3 -10 15 -10 25 0 10 -6 21
-12 23 -10 4 -10 6 0 6 10 1 9 5 -3 17 -9 9 -14 23 -11 31 3 8 1 11 -4 8 -9
-6 -14 10 -13 42 1 7 -3 10 -8 7 -5 -3 -9 5 -9 19 0 13 -9 33 -20 45 -23 24
-26 36 -7 27 6 -4 4 0 -5 8 -10 8 -15 16 -13 19 8 7 -21 59 -29 53 -3 -3 -2 0
3 6 6 8 3 19 -10 33 -11 11 -18 29 -15 38 2 10 -1 18 -7 18 -6 0 -7 3 -4 6 4
4 -2 15 -14 25 -14 12 -16 19 -7 22 10 4 8 9 -5 17 -9 6 -15 16 -11 21 3 5 0
16 -6 24 -7 8 -10 22 -6 30 3 9 2 14 -3 11 -11 -7 -25 23 -22 49 2 17 0 17 -8
5 -9 -12 -11 -11 -11 9 0 13 -8 30 -17 38 -10 8 -12 12 -5 8 6 -3 12 -1 12 4
0 6 -4 11 -10 11 -5 0 -6 7 -3 17 5 12 3 14 -7 8 -10 -6 -12 -3 -8 13 4 12 1
25 -5 30 -15 9 -42 56 -28 47 6 -3 11 -1 11 4 0 6 -4 11 -10 11 -5 0 -10 7
-10 15 0 8 -4 15 -10 15 -5 0 -10 5 -10 11 0 5 6 7 13 3 6 -4 4 2 -6 14 -11
12 -16 26 -11 33 4 8 3 10 -4 5 -8 -5 -12 0 -12 13 0 12 -5 21 -12 21 -6 0 -8
3 -5 7 4 3 2 12 -4 20 -6 7 -9 13 -6 13 3 0 0 12 -8 27 -8 15 -11 31 -8 36 3
6 1 7 -5 3 -8 -5 -12 1 -12 14 0 12 -4 19 -9 16 -4 -3 -7 6 -5 19 1 16 -4 29
-16 35 -11 6 -16 18 -15 35 2 14 -1 25 -6 25 -5 0 -9 11 -9 24 0 14 -4 28 -10
31 -5 3 -10 15 -10 26 0 12 -4 17 -11 13 -7 -4 -10 1 -7 12 2 10 -5 27 -16 38
-13 13 -15 20 -6 26 8 5 7 9 -4 13 -9 4 -16 15 -16 26 0 11 -5 23 -11 26 -6 4
-8 14 -5 22 4 11 2 13 -9 9 -13 -4 -14 -2 -5 14 8 16 8 20 -4 20 -10 0 -13 6
-10 15 4 8 1 15 -6 15 -6 0 -8 5 -5 10 3 6 1 10 -5 10 -6 0 -9 4 -6 9 7 11
-16 61 -29 61 -5 0 -3 5 5 10 10 6 11 10 3 10 -7 0 -13 7 -13 15 0 8 -5 15
-11 15 -5 0 -7 5 -4 10 3 6 0 10 -7 10 -10 0 -10 2 -1 8 9 6 7 13 -8 26 -16
14 -18 20 -9 32 10 11 9 14 -4 14 -9 0 -16 8 -16 18 0 21 -22 72 -32 72 -3 0
-5 11 -3 25 1 16 -3 25 -11 25 -14 0 -16 4 -17 38 -1 9 -8 22 -17 29 -13 11
-13 12 0 13 12 1 12 3 -2 14 -10 7 -15 16 -11 19 3 4 1 7 -5 7 -6 0 -9 7 -6
15 4 8 1 15 -5 15 -6 0 -11 5 -11 11 0 5 6 7 13 3 6 -3 1 4 -13 17 -14 13 -19
20 -11 14 10 -7 8 2 -7 28 -12 21 -22 46 -22 56 0 10 -7 24 -15 31 -8 7 -12
16 -9 21 3 5 0 9 -5 9 -6 0 -11 5 -11 11 0 5 5 7 11 4 6 -4 5 2 -2 13 -7 12
-17 18 -22 15 -5 -3 -6 4 -2 16 4 13 2 21 -5 21 -7 0 -10 7 -6 15 3 8 1 15 -4
15 -6 0 -10 9 -10 20 0 11 -4 20 -10 20 -5 0 -10 11 -10 25 0 14 -5 25 -11 25
-7 0 -9 10 -7 24 4 19 1 23 -10 18 -11 -4 -14 -1 -9 11 3 8 -1 21 -9 28 -8 7
-13 18 -10 25 3 7 1 16 -5 19 -5 4 -6 11 -3 17 4 7 2 8 -4 4 -11 -7 -17 6 -13
28 1 4 -3 14 -10 22 -6 8 -8 21 -5 30 5 14 4 15 -8 5 -12 -10 -14 -8 -12 13 2
15 -1 26 -6 26 -6 0 -7 7 -4 16 3 8 2 12 -4 9 -6 -4 -10 5 -10 20 0 15 -4 24
-10 20 -8 -5 -13 15 -9 41 0 4 -5 10 -11 14 -7 4 -13 19 -13 33 -1 14 -5 23
-8 21 -9 -5 -20 26 -13 37 3 5 0 9 -5 9 -6 0 -11 8 -11 17 0 9 -10 28 -22 41
-13 14 -17 22 -10 18 6 -4 12 -2 12 3 0 6 -5 11 -12 11 -6 0 -8 3 -5 7 4 3 -1
15 -10 26 -13 15 -14 18 -3 12 9 -5 7 1 -5 14 -11 13 -19 26 -18 30 0 3 -4 5
-10 3 -9 -2 -8 0 0 9 10 10 9 15 -5 26 -9 8 -12 12 -5 9 6 -4 15 -1 19 5 4 7
3 9 -3 6 -14 -9 -31 14 -28 36 2 9 -1 15 -6 11 -5 -3 -9 6 -9 20 0 14 -4 26
-10 26 -5 0 -10 9 -10 19 0 11 -5 23 -11 26 -6 4 -8 13 -5 20 2 7 -2 16 -10
19 -8 3 -14 16 -14 30 0 14 -4 28 -10 31 -5 3 -10 13 -10 22 0 9 -8 22 -17 30
-10 8 -12 12 -6 8 9 -4 11 0 6 12 -4 10 -9 20 -12 23 -15 13 -31 52 -31 75 0
18 -4 24 -12 19 -8 -5 -9 -2 -5 9 3 10 2 17 -4 17 -6 0 -7 5 -4 10 3 6 1 10
-4 10 -6 0 -11 9 -11 20 0 11 -4 20 -10 20 -5 0 -10 5 -10 11 0 5 5 7 11 4 6
-4 5 2 -3 14 -7 12 -17 21 -22 21 -4 0 -6 9 -3 20 3 14 0 20 -10 20 -13 0 -13
2 -2 17 10 11 10 14 2 9 -9 -5 -13 1 -13 19 0 15 -4 24 -10 20 -6 -4 -10 7
-10 25 0 21 -4 29 -12 24 -8 -5 -9 0 -6 14 4 14 1 25 -8 30 -8 5 -16 18 -17
30 -1 12 -5 22 -9 22 -4 0 -8 13 -8 30 0 20 -7 33 -21 41 -14 7 -19 17 -16 30
3 12 0 19 -10 19 -8 0 -11 5 -8 10 4 6 12 8 18 4 7 -3 5 0 -4 8 -15 13 -32 43
-34 63 -1 6 -10 28 -20 50 -10 22 -19 46 -21 54 -1 8 -8 17 -14 21 -9 6 -9 9
1 13 10 4 10 6 2 6 -7 1 -13 8 -13 16 0 8 -4 15 -10 15 -5 0 -10 11 -10 25 0
14 -7 28 -16 32 -13 5 -13 7 -2 14 11 7 11 9 -1 9 -7 0 -11 6 -7 15 3 8 1 15
-4 15 -6 0 -10 7 -10 16 0 8 -7 23 -16 31 -11 12 -12 18 -4 23 9 6 8 10 -4 17
-10 5 -19 18 -21 29 -2 10 -4 21 -6 24 -3 7 -7 23 -8 38 0 7 -5 10 -11 7 -6
-4 -10 5 -10 19 0 14 -4 26 -10 26 -5 0 -10 12 -10 26 0 17 -4 23 -12 18 -8
-5 -7 0 2 11 8 10 10 16 4 12 -7 -4 -18 1 -25 10 -10 12 -10 14 -1 9 6 -4 12
-2 12 3 0 6 -5 11 -11 11 -5 0 -7 5 -4 10 3 6 1 10 -5 10 -6 0 -8 5 -5 10 3 6
1 10 -4 10 -6 0 -11 5 -11 11 0 5 6 7 13 3 6 -5 0 7 -16 25 -15 18 -24 37 -21
43 4 6 1 13 -5 17 -6 4 -13 21 -14 38 -1 17 -5 29 -9 26 -5 -2 -8 3 -8 12 0 9
-4 14 -10 10 -5 -3 -8 9 -7 29 2 25 0 33 -10 29 -9 -3 -13 4 -13 21 0 14 -4
26 -8 26 -4 0 -8 10 -9 22 -1 11 -6 24 -10 27 -12 9 -36 54 -25 47 5 -3 9 1 9
9 0 8 -4 12 -9 9 -7 -5 -12 10 -9 29 0 4 -4 7 -9 7 -6 0 -10 12 -10 26 0 14
-4 23 -10 19 -6 -4 -10 7 -10 24 0 17 -4 31 -10 31 -5 0 -10 9 -10 19 0 11 -4
23 -10 26 -5 3 -10 17 -10 31 0 14 -4 22 -10 19 -10 -6 -14 15 -11 44 2 7 -2
10 -8 6 -10 -6 -16 8 -12 29 1 4 -3 14 -9 20 -5 7 -7 16 -3 19 3 4 -2 7 -13 7
-14 0 -16 2 -5 9 9 6 10 10 2 12 -7 3 -13 14 -14 26 0 12 -5 19 -9 17 -4 -3
-8 4 -8 15 0 11 -5 23 -10 26 -6 4 -10 12 -9 18 3 26 -2 38 -12 31 -7 -4 -10
-1 -7 7 3 8 -1 28 -10 44 -8 17 -19 38 -23 47 -5 10 -9 25 -9 33 0 9 -4 14 -8
11 -4 -2 -9 9 -10 26 -3 36 -10 50 -22 43 -4 -3 -6 4 -3 15 3 11 0 20 -6 20
-6 0 -11 11 -11 24 0 13 -6 26 -14 29 -9 4 -12 14 -9 25 3 13 -3 25 -18 36
-13 9 -18 16 -12 16 6 0 14 7 17 16 6 15 4 15 -11 3 -10 -7 -15 -9 -11 -5 4 5
3 15 -3 23 -6 7 -8 13 -4 13 4 0 2 7 -5 15 -7 8 -10 21 -6 30 3 8 0 14 -7 12
-7 -1 -13 12 -15 32 -3 25 -6 31 -13 20 -6 -10 -9 -5 -9 19 0 21 -4 31 -11 27
-6 -4 -10 -1 -8 6 3 25 -1 40 -9 35 -4 -2 -8 3 -8 12 -1 27 -8 45 -22 60 -7 8
-10 18 -7 23 4 5 1 9 -4 9 -6 0 -11 6 -11 14 0 8 -6 17 -12 19 -10 4 -10 6 0
6 6 1 12 6 12 12 0 5 -4 7 -10 4 -6 -4 -10 5 -10 19 0 14 -4 26 -10 26 -5 0
-10 9 -10 19 0 32 -15 32 -29 0z"/>
<path d="M1373 1598 c-1 -12 -7 -24 -12 -27 -6 -4 -11 -21 -13 -38 -2 -27 -5
-30 -17 -20 -12 10 -13 9 -2 -10 7 -14 8 -23 2 -23 -5 0 -8 -9 -6 -21 3 -17 1
-19 -10 -9 -11 9 -12 7 -8 -9 3 -14 1 -21 -8 -21 -11 0 -11 -2 1 -10 12 -8 12
-10 -2 -15 -9 -4 -14 -13 -11 -21 3 -8 -1 -14 -8 -14 -7 0 -9 -3 -6 -7 4 -3 0
-17 -9 -31 -9 -13 -11 -21 -5 -18 7 5 9 1 5 -8 -3 -9 -10 -16 -14 -16 -5 0 -6
-10 -2 -22 3 -14 2 -19 -6 -14 -7 4 -12 1 -12 -8 0 -25 -2 -30 -19 -44 -14
-11 -14 -11 4 -6 19 5 19 5 3 -9 -10 -8 -15 -17 -11 -20 3 -4 1 -7 -6 -7 -9 0
-12 -9 -9 -24 3 -16 0 -27 -9 -30 -8 -3 -13 -14 -11 -23 2 -11 -2 -17 -11 -15
-12 3 -12 0 -1 -12 7 -9 8 -16 4 -16 -12 0 -33 -49 -36 -83 -1 -15 -6 -27 -10
-27 -4 0 -8 -7 -8 -16 0 -9 -5 -12 -12 -8 -10 6 -10 4 0 -8 10 -13 10 -17 -3
-21 -8 -4 -12 -13 -9 -22 3 -8 1 -15 -6 -15 -6 0 -8 -4 -5 -10 3 -5 2 -10 -3
-10 -6 0 -8 -10 -4 -22 4 -16 1 -20 -9 -16 -11 4 -14 -4 -13 -32 0 -27 -3 -37
-12 -33 -9 3 -11 -2 -7 -18 4 -14 2 -20 -5 -16 -6 4 -9 0 -8 -10 2 -10 -4 -24
-13 -31 -12 -10 -12 -12 -1 -6 12 7 13 5 3 -8 -7 -8 -10 -18 -6 -21 3 -4 0 -7
-7 -7 -7 0 -10 -3 -7 -7 4 -3 2 -12 -5 -20 -6 -7 -8 -16 -5 -20 4 -3 -1 -12
-11 -20 -11 -9 -11 -12 -2 -7 12 6 13 4 3 -7 -7 -7 -13 -21 -13 -31 0 -10 -6
-18 -12 -18 -10 0 -10 -2 0 -9 11 -7 10 -9 -3 -15 -9 -3 -13 -10 -10 -16 3 -5
1 -10 -5 -10 -6 0 -10 -6 -9 -12 3 -27 -1 -39 -12 -32 -8 4 -8 0 0 -15 10 -18
9 -20 -5 -14 -12 4 -15 3 -10 -5 4 -7 4 -18 -1 -24 -8 -15 -14 -35 -16 -60 -1
-9 -3 -15 -6 -13 -7 8 -31 -46 -31 -72 0 -13 -4 -22 -8 -19 -4 2 -9 -5 -9 -16
-1 -12 -8 -25 -15 -29 -11 -7 -11 -9 0 -9 10 0 9 -4 -2 -16 -9 -8 -14 -20 -11
-25 4 -5 2 -9 -2 -9 -5 0 -9 -9 -10 -20 -2 -20 4 -20 597 -20 522 0 599 2 604
15 3 10 -1 15 -12 15 -15 0 -15 2 -2 10 10 6 11 10 3 10 -7 0 -13 11 -13 25 0
14 -4 25 -9 25 -5 0 -8 11 -6 25 1 16 -3 25 -12 25 -8 0 -12 4 -8 9 3 5 1 12
-4 16 -6 3 -8 12 -5 20 3 8 -4 28 -15 44 -12 16 -21 33 -21 38 0 4 5 1 10 -7
5 -8 10 -10 10 -5 -1 18 -27 45 -36 37 -4 -4 -2 1 5 11 10 12 10 17 2 17 -7 0
-10 4 -7 9 3 5 -1 14 -9 21 -8 7 -15 28 -15 47 0 20 -4 32 -10 28 -5 -3 -10 2
-10 12 0 11 -5 24 -11 30 -8 8 -7 13 2 18 8 6 10 4 4 -5 -5 -9 -4 -11 4 -6 6
4 9 12 5 17 -3 5 -9 7 -13 5 -11 -7 -35 40 -27 53 4 6 3 11 -2 11 -6 0 -13 7
-16 16 -6 15 -4 15 11 3 17 -13 17 -13 1 7 -10 11 -18 26 -18 32 0 7 -5 12
-11 12 -8 0 -7 6 2 17 10 11 10 14 2 9 -12 -6 -19 17 -14 46 0 4 -5 5 -13 2
-10 -4 -12 2 -9 20 3 16 1 26 -6 26 -7 0 -10 4 -7 9 9 15 -5 42 -18 34 -6 -4
-4 2 4 12 9 11 10 16 3 11 -9 -5 -13 1 -13 18 0 14 -5 26 -10 26 -6 0 -9 3 -9
8 4 24 -2 52 -11 47 -6 -4 -10 8 -10 29 0 20 -4 36 -10 36 -5 0 -10 9 -10 20
0 21 -19 60 -33 71 -5 3 -8 15 -7 25 4 33 0 45 -10 39 -6 -4 -10 7 -10 24 0
17 -5 31 -10 31 -6 0 -9 3 -9 8 4 21 -2 32 -13 26 -10 -6 -10 -4 0 7 14 16 16
33 2 24 -6 -4 -10 5 -10 19 0 14 -4 26 -10 26 -5 0 -10 12 -10 26 0 14 -7 32
-15 41 -8 8 -13 19 -9 24 3 6 1 16 -5 23 -6 7 -12 25 -13 39 -1 14 -6 23 -10
21 -4 -3 -8 4 -8 15 0 12 -5 21 -11 21 -5 0 -8 4 -5 9 9 15 -5 42 -18 34 -8
-5 -8 -3 0 8 9 11 8 18 -5 31 -16 16 -17 16 -18 -4z"/>
</g>
</svg>
